<?xml version="1.0" standalone="no"?>
<!DOCTYPE svg PUBLIC "-//W3C//DTD SVG 20010904//EN"
 "http://www.w3.org/TR/2001/REC-SVG-20010904/DTD/svg10.dtd">
<svg version="1.0" xmlns="http://www.w3.org/2000/svg"
 width="444.000000pt" height="444.000000pt" viewBox="0 0 444.000000 444.000000"
 preserveAspectRatio="xMidYMid meet">
<metadata>
Created by potrace 1.14, written by Peter Selinger 2001-2017
</metadata>
<g transform="translate(0.000000,444.000000) scale(0.100000,-0.100000)"
fill="#000000" stroke="none">
<path d="M917 3192 c-9 -2 -25 -26 -36 -55 -11 -29 -78 -196 -149 -372 -71
-176 -196 -484 -277 -685 -81 -201 -189 -469 -241 -597 -52 -127 -94 -234 -94
-237 0 -3 107 -6 238 -6 l237 0 59 163 c33 89 65 177 73 195 l13 32 372 -2
372 -3 70 -192 71 -193 238 0 c130 0 237 2 237 5 0 5 -93 241 -115 290 -7 17
-35 86 -63 155 -28 69 -84 208 -125 310 -41 102 -112 277 -157 390 -45 113
-97 241 -115 285 -18 44 -72 178 -120 298 -87 217 -87 217 -119 218 -104 3
-355 3 -369 1z m310 -902 l101 -265 -109 -3 c-60 -1 -158 -1 -218 0 l-109 3
95 245 c52 135 99 262 105 284 14 51 12 56 135 -264z"/>
<path d="M2553 2470 c-146 -38 -255 -119 -345 -257 -87 -132 -122 -320 -94
-497 29 -178 164 -369 315 -446 219 -110 497 -76 649 80 l32 34 0 -72 0 -72
208 0 207 0 0 605 c0 333 -2 606 -5 606 -31 7 -411 2 -413 -6 -2 -5 -3 -29 -2
-52 1 -24 -1 -43 -5 -43 -4 0 -20 11 -36 25 -114 98 -339 140 -511 95z m368
-352 c150 -51 224 -202 180 -365 -40 -146 -224 -229 -381 -170 -137 51 -206
221 -150 370 29 76 110 153 174 164 11 2 22 6 25 8 9 10 119 5 152 -7z"/>
<path d="M3994 1729 c-55 -21 -117 -77 -147 -134 -17 -31 -22 -57 -22 -120 0
-94 20 -140 84 -198 57 -51 104 -69 183 -69 103 0 174 41 237 137 23 35 26 50
26 125 0 68 -5 93 -22 126 -26 49 -92 111 -141 131 -53 22 -142 23 -198 2z"/>
</g>
</svg>
